<?xml version="1.0" encoding="utf-8"?>
<!-- Svg Vector Icons : http://www.onlinewebfonts.com/icon -->
<!DOCTYPE svg PUBLIC "-//W3C//DTD SVG 1.1//EN" "http://www.w3.org/Graphics/SVG/1.1/DTD/svg11.dtd">
<svg version="1.1" xmlns="http://www.w3.org/2000/svg" xmlns:xlink="http://www.w3.org/1999/xlink" x="0px" y="0px" viewBox="0 0 1000 1000" enable-background="new 0 0 1000 1000" xml:space="preserve">
<metadata> Svg Vector Icons : http://www.onlinewebfonts.com/icon </metadata>
<g><path d="M353,10C161.9,10,10,161.9,10,353c0,191.1,151.9,343,343,343c191.1,0,343-151.9,343-343C696,161.9,544.1,10,353,10z M279.5,402C210.9,402,157,348.1,157,279.5S210.9,157,279.5,157S402,210.9,402,279.5S348.1,402,279.5,402z"/><path d="M647,451L451,647l98,98l0,0h98v98l0,0h98v98l34.3,34.3c9.8,9.8,19.6,14.7,34.3,14.7H941c29.4,0,49-19.6,49-49V813.6c0-14.7-4.9-24.5-14.7-34.3L647,451z"/></g>
</svg>